ply
format ascii 1.0
element vertex 85
property float x
property float y
property float z
property uchar red
property uchar green
property uchar blue
end_header
-0.056426 0.009320 0.307798 101 96 89
-0.055921 0.008098 0.308908 131 125 118
-0.055229 -0.008574 0.307838 127 122 112
-0.054916 -0.038076 0.307510 116 103 94
-0.055252 -0.007604 0.309060 94 89 80
-0.055053 -0.005474 0.308707 93 84 78
-0.054398 -0.049919 0.308029 116 109 97
-0.054687 0.006326 0.309768 127 121 116
-0.053404 -0.006638 0.307186 136 131 124
-0.053520 0.008402 0.309150 138 131 127
-0.053307 0.009449 0.310105 100 94 89
-0.053307 0.009449 0.310105 100 94 89
-0.053092 0.000938 0.309611 89 81 75
-0.052487 0.007017 0.307911 103 99 96
-0.052445 -0.001358 0.309407 103 95 89
-0.026938 -0.008781 0.312473 58 82 88
-0.026938 -0.008781 0.312473 58 82 88
-0.025701 -0.047569 0.312790 116 112 111
-0.025701 -0.047569 0.312790 116 112 111
-0.025717 -0.040569 0.312728 119 114 104
-0.025717 -0.040569 0.312728 119 114 104
-0.024917 -0.085208 0.312749 113 96 88
-0.022879 -0.044214 0.313353 66 66 91
-0.022879 -0.044214 0.313353 66 66 91
-0.022293 -0.038969 0.312787 69 64 80
-0.022293 -0.038969 0.312787 69 64 80
-0.022109 -0.051244 0.313021 64 62 76
-0.021850 -0.084452 0.312820 116 99 92
-0.020159 0.005171 0.316467 124 131 135
-0.020159 0.005171 0.316467 124 131 135
-0.018998 -0.095875 0.314678 114 98 87
-0.018998 -0.095875 0.314678 114 98 87
-0.018577 -0.040048 0.312221 120 116 112
-0.018577 -0.040048 0.312221 120 116 112
-0.018561 -0.047230 0.313047 119 113 106
-0.018561 -0.047230 0.313047 119 113 106
-0.018323 -0.047579 0.313317 119 112 103
-0.018323 -0.047579 0.313317 119 112 103
-0.018236 -0.020814 0.335298 126 125 121
-0.016683 -0.082145 0.314054 116 100 87
-0.016731 -0.038453 0.313732 126 115 108
-0.016217 -0.072299 0.312595 124 108 118
-0.015071 -0.074948 0.315807 68 52 66
-0.014050 -0.050557 0.313727 121 109 102
-0.014337 0.003520 0.317452 126 119 106
-0.014337 0.003520 0.317452 126 119 106
-0.013829 -0.058490 0.315296 69 60 74
-0.013669 -0.003995 0.314706 57 74 80
-0.009930 -0.048131 0.315323 123 110 103
-0.008296 -0.006900 0.316506 53 79 88
-0.006645 -0.071681 0.315602 73 55 68
-0.005050 -0.101274 0.316092 90 66 60
-0.005050 -0.101274 0.316092 90 66 60
-0.004743 -0.006125 0.316533 54 59 57
0.137695 -0.101038 0.325392 121 50 8
0.137695 -0.101038 0.325392 121 50 8
0.137555 -0.097819 0.324938 116 60 1
0.138887 -0.096176 0.326743 121 58 8
0.140174 -0.099896 0.325265 83 44 18
0.140217 -0.098468 0.325216 101 50 27
0.140217 -0.098468 0.325216 101 50 27
0.140102 -0.103583 0.324537 53 26 10
0.149231 -0.057482 0.323428 125 57 2
0.149231 -0.057482 0.323428 125 57 2
0.156726 -0.051312 0.325447 58 26 10
0.156726 -0.051312 0.325447 58 26 10
0.156536 0.003176 0.325105 111 54 12
0.156979 -0.062742 0.324088 122 58 2
0.156979 -0.062742 0.324088 122 58 2
0.158132 -0.057304 0.326063 123 59 6
0.157474 -0.060459 0.324025 124 58 0
0.158053 0.005091 0.325298 100 48 4
0.158674 -0.054647 0.323889 107 61 10
0.159277 -0.062844 0.324112 113 61 15
0.160166 -0.050603 0.325235 32 7 0
0.160029 0.001575 0.324885 94 41 2
0.163163 -0.061563 0.325710 119 56 9
0.164826 0.003039 0.323891 77 29 4
0.169824 -0.066162 0.324465 108 55 18
0.169991 -0.068119 0.322536 115 62 10
0.172791 0.003271 0.322818 70 32 1
0.177726 -0.052729 0.323682 21 10 7
0.179379 -0.066188 0.323336 128 55 0
0.179379 -0.066188 0.323336 128 55 0
0.179742 -0.046123 0.323460 126 57 6
